<mxfile host="app.diagrams.net" modified="2023-06-17T22:52:32.501Z" agent="Mozilla/5.0 (Windows NT 10.0; Win64; x64) AppleWebKit/537.36 (KHTML, like Gecko) Chrome/114.0.0.0 Safari/537.36" etag="o04NkgzxbPIthfW9EtwJ" version="21.4.0" type="device">
  <diagram name="MVVMパターン" id="ws66lXrO5oaL-9CL0-PD">
    <mxGraphModel dx="683" dy="375" grid="1" gridSize="10" guides="1" tooltips="1" connect="1" arrows="1" fold="1" page="1" pageScale="1" pageWidth="827" pageHeight="1169" math="0" shadow="0">
      <root>
        <mxCell id="0" />
        <mxCell id="1" parent="0" />
        <mxCell id="Q1PqAyn53_yQWRf1Xd7Y-1" value="Model" style="rounded=0;whiteSpace=wrap;html=1;" vertex="1" parent="1">
          <mxGeometry x="80" y="240" width="120" height="60" as="geometry" />
        </mxCell>
        <mxCell id="Q1PqAyn53_yQWRf1Xd7Y-2" value="ViewModel" style="rounded=0;whiteSpace=wrap;html=1;" vertex="1" parent="1">
          <mxGeometry x="310" y="240" width="120" height="60" as="geometry" />
        </mxCell>
        <mxCell id="Q1PqAyn53_yQWRf1Xd7Y-3" value="View" style="rounded=0;whiteSpace=wrap;html=1;" vertex="1" parent="1">
          <mxGeometry x="540" y="240" width="120" height="60" as="geometry" />
        </mxCell>
        <mxCell id="Q1PqAyn53_yQWRf1Xd7Y-4" value="" style="endArrow=classic;html=1;rounded=0;" edge="1" parent="1">
          <mxGeometry width="50" height="50" relative="1" as="geometry">
            <mxPoint x="230" y="250" as="sourcePoint" />
            <mxPoint x="290" y="250" as="targetPoint" />
          </mxGeometry>
        </mxCell>
        <mxCell id="Q1PqAyn53_yQWRf1Xd7Y-5" value="" style="endArrow=classic;html=1;rounded=0;" edge="1" parent="1">
          <mxGeometry width="50" height="50" relative="1" as="geometry">
            <mxPoint x="290" y="290" as="sourcePoint" />
            <mxPoint x="230" y="290" as="targetPoint" />
          </mxGeometry>
        </mxCell>
        <mxCell id="Q1PqAyn53_yQWRf1Xd7Y-6" value="" style="endArrow=classic;html=1;rounded=0;" edge="1" parent="1">
          <mxGeometry width="50" height="50" relative="1" as="geometry">
            <mxPoint x="460" y="249.76" as="sourcePoint" />
            <mxPoint x="520" y="249.76" as="targetPoint" />
          </mxGeometry>
        </mxCell>
        <mxCell id="Q1PqAyn53_yQWRf1Xd7Y-7" value="" style="endArrow=classic;html=1;rounded=0;" edge="1" parent="1">
          <mxGeometry width="50" height="50" relative="1" as="geometry">
            <mxPoint x="520" y="289.76" as="sourcePoint" />
            <mxPoint x="460" y="289.76" as="targetPoint" />
          </mxGeometry>
        </mxCell>
        <mxCell id="Q1PqAyn53_yQWRf1Xd7Y-8" value="Notifications" style="text;html=1;strokeColor=none;fillColor=none;align=center;verticalAlign=middle;whiteSpace=wrap;rounded=0;" vertex="1" parent="1">
          <mxGeometry x="440" y="150" width="90" height="30" as="geometry" />
        </mxCell>
        <mxCell id="Q1PqAyn53_yQWRf1Xd7Y-9" value="Data Binding" style="text;html=1;strokeColor=none;fillColor=none;align=center;verticalAlign=middle;whiteSpace=wrap;rounded=0;" vertex="1" parent="1">
          <mxGeometry x="440" y="180" width="90" height="30" as="geometry" />
        </mxCell>
        <mxCell id="Q1PqAyn53_yQWRf1Xd7Y-10" value="Command" style="text;html=1;strokeColor=none;fillColor=none;align=center;verticalAlign=middle;whiteSpace=wrap;rounded=0;" vertex="1" parent="1">
          <mxGeometry x="440" y="320" width="90" height="30" as="geometry" />
        </mxCell>
      </root>
    </mxGraphModel>
  </diagram>
</mxfile>
